# xmcd
#
# Track frame offsets: 
#        150
#        20925
#        39151
#        59700
#        77927
#        96408
#        115041
#        130972
#        151894
#        165974
#        187576
#        205627
#        225092
#        244776
#        267044
#        282689
#        300000
#        317635
#
# Disc length: 4514 seconds
#
# Revision: 1
# Processed by: cddbd v1.5.2PL0 Copyright (c) Steve Scherf et al.
# Submitted via: ExactAudioCopy v0.99pb4
#
DISCID=df11a012
DTITLE=Various Artist - Motel Lovers - Southern Soul from the Chitlin' 
DTITLE=Circuit
DYEAR=2007
DGENRE=Soul
TTITLE0=Bobby Rush - Night Fishin'
TTITLE1=Sir Charles Jones - Friday
TTITLE2=Marvin Sease - Motel Lover
TTITLE3=Big Cynthia - Don't Rock the Boat
TTITLE4=Dave Mack - Something Ain't Right
TTITLE5=Floyd Taylor - Hit It Right
TTITLE6=Peggy Scott-Adams - If It Ain't Broke
TTITLE7=O.B. Buchana - Ring Ring Hello Click
TTITLE8=Big Cynthia feat Mr. David - If You Wanna Get It
TTITLE9=Sheba Potts-Wright - Slow Roll It
TTITLE10=Willie Clayton - Three People
TTITLE11=Bill Coday - On the Chitlin' Circuit
TTITLE12=Denise Lasalle - Long Dong Silver
TTITLE13=Barbara Carr - Down Low Brother
TTITLE14=Lee Fields - I'll Go to Jail
TTITLE15=Mr. David - Better When You Steal It
TTITLE16=Gwen McCrae - Psychic Hotline
TTITLE17=Mel Waiters - Smaller The Club
EXTD=
EXTT0=
EXTT1=
EXTT2=
EXTT3=
EXTT4=
EXTT5=
EXTT6=
EXTT7=
EXTT8=
EXTT9=
EXTT10=
EXTT11=
EXTT12=
EXTT13=
EXTT14=
EXTT15=
EXTT16=
EXTT17=
PLAYORDER=
